HIERARCHY
ROOT Hips
{
    OFFSET 0.0 0.0 0.0
    CHANNELS 6 Xposition Yposition Zposition Zrotation Xrotation Yrotation
    JOINT Spine
    {
        OFFSET 0.0 24.99717550194369 0.0
        CHANNELS 3 Zrotation Xrotation Yrotation
        JOINT Chest
        {
            OFFSET 0.0 24.997175501943687 0.0
            CHANNELS 3 Zrotation Xrotation Yrotation
            JOINT Head
            {
                OFFSET 0.0 18.14695978361579 0.0
                CHANNELS 3 Zrotation Xrotation Yrotation
            }
            JOINT LeftUpperArm
            {
                OFFSET 16.4291351110527 0.0 0.0
                CHANNELS 3 Zrotation Xrotation Yrotation
                JOINT LeftLowerArm
                {
                    OFFSET 23.871829223782157 0.0 0.0
                    CHANNELS 3 Zrotation Xrotation Yrotation
                    JOINT LeftHand
                    {
                        OFFSET 23.021051914356576 0.0 0.0
                        CHANNELS 3 Zrotation Xrotation Yrotation
                    }
                    End Site
                    {
                    OFFSET 6.517608341232653 0.0 0.0
                    }
                }
            }
            JOINT RightUpperArm
            {
                OFFSET -16.4291351110527 0.0 0.0
                CHANNELS 3 Zrotation Xrotation Yrotation
                JOINT RightLowerArm
                {
                    OFFSET 23.871829223782157 0.0 0.0
                    CHANNELS 3 Zrotation Xrotation Yrotation
                    JOINT RightHand
                    {
                        OFFSET 23.021051914356576 0.0 0.0
                        CHANNELS 3 Zrotation Xrotation Yrotation
                    }
                    End Site
                    {
                    OFFSET 6.517608341232653 0.0 0.0
                    }
                }
            }
        }
    }
    JOINT LeftUpperLeg
    {
        OFFSET 9.053016085917449 0.0 0.0
        CHANNELS 3 Zrotation Xrotation Yrotation
        JOINT LeftLowerLeg
        {
            OFFSET 37.82886434284703 0.0 0.0
            CHANNELS 3 Zrotation Xrotation Yrotation
            JOINT LeftFootAnkle
            {
                OFFSET 40.37157936307976 0.0 0.0
                CHANNELS 3 Zrotation Xrotation Yrotation
                End Site
                {
                OFFSET 11.283376939873094 0.0 0.0
                }
            }
        }
    }
    JOINT RightUpperLeg
    {
        OFFSET -9.053016085917449 0.0 0.0
        CHANNELS 3 Zrotation Xrotation Yrotation
        JOINT RightLowerLeg
        {
            OFFSET 37.82886434284703 0.0 0.0
            CHANNELS 3 Zrotation Xrotation Yrotation
            JOINT RightFootAnkle
            {
                OFFSET 40.37157936307976 0.0 0.0
                CHANNELS 3 Zrotation Xrotation Yrotation
                End Site
                {
                OFFSET 11.283376939873094 0.0 0.0
                }
            }
        }
    }
}
MOTION
Frames: 6
Frame Time: 0.03333333333333333
-0.14498975704684464 -0.16295978031711048 0.08409965207775398 -4.290731744046599 13.49189327192659 13.503378455447033 -2.1806668252593924 0.8930193413538701 -13.577786688984267 -1.9079543892473092 1.3858963515076987 -13.605801873269815 -35.1983065550235 -7.504583173633016 -119.40911950134779 -177.49076130062087 22.453044064863423 164.04223647156473 -174.98362367755092 42.598593910176334 180.0 -30.701103265892677 -47.13539542553201 -42.60132656772779 29.63284143582095 17.832236135131613 -149.6176665561576 -156.11981347184562 85.93911984122124 179.9999999999998 34.14658930352118 29.75051808567989 172.5998744826097 -155.19770294576753 -73.81699173223684 -65.86498508232259 -155.77273169364784 -21.343484304827523 180.0 -109.86071851013983 31.528728878050217 180.0 114.61066631454779 -59.716200508671896 -164.37003416004998 -161.99564539020383 -46.78657300320104 180.0 -93.52257034688006 -7.937810036573281 180.0
-0.14500502167162102 -0.1638856216565289 0.08376918632763862 -4.236533977034742 13.139124768881073 13.518597398474137 -2.2650617554069252 0.8915591810238418 -13.380125924527087 -1.9950658942984731 1.3977644833260485 -13.408778297637536 -35.0169538555717 -7.009026173247396 -119.4965218341761 -173.7813876259815 31.958735622804596 162.55024810811864 -175.87736592549948 31.532344123802993 180.0 -32.29727490229943 -48.335157052314074 -44.64588368198568 30.097330926409946 17.502954598194712 -149.8859332070148 -156.20261768770334 86.969549803918 179.9999999999993 35.542833005989785 30.754856564668998 169.87923404907193 -154.5937087724867 -74.27744501433001 -65.26989141569358 -155.97731471574906 -21.29725447608907 180.0 -109.36262044520076 31.42139043159799 180.0 114.12096066164246 -59.8857710561642 -164.94075086757266 -161.95193741288338 -46.86148275433037 180.0 -93.28697307508772 -7.918987884997285 180.0
-0.14564866269125284 -0.16572258656191793 0.08094698717475396 -3.957643002028457 11.849019168723784 13.518166887187077 -2.478769552920797 0.8632460251463385 -13.010636681663096 -2.2185163219245485 1.4059408696343254 -13.03957844584101 -34.76408284928116 -5.597280434690725 -119.51044411060028 -167.75701547123117 45.41101324955297 160.02266542882614 -175.7766123412115 15.925552174780407 180.0 -31.277738539734276 -48.487847774129044 -43.15665840044835 30.528374879558218 17.90671782369163 -150.35726651575706 -156.3188799055589 86.49545687721574 179.9999999999999 36.94709451977645 29.496804155863902 170.3009260071661 -150.7688088713741 -75.25705114364908 -61.35258124084911 -156.07832529601126 -20.891175414570508 180.0 -108.85879479097525 31.305615324132745 180.0 112.36215545913569 -60.94650645282936 -166.85034217111712 -161.90975498381013 -46.24453946443682 180.0 -93.22164712924123 -7.768209971625148 180.0
-0.14613354819698104 -0.16786695170765567 0.0768865540816098 -3.6544744667660507 10.451049177923498 13.439567386561075 -2.518282518021085 0.8125821141006246 -12.979899650572907 -2.269362266110428 1.3637345176447124 -13.006597293097665 -34.90680769637114 -4.595772813888364 -119.11193715894129 -173.8458449954556 31.41827641159139 166.2329832755826 -175.40721907688183 28.03627648556762 180.0 -32.90462087232385 -47.82475565519124 -43.60538421578046 30.48486670140657 19.48059437071112 -150.88357552000332 -155.9796846613606 87.18602589600248 179.9999999999997 41.07381673847056 29.292978142372395 169.6202880142778 -145.79108390421732 -76.15693836382778 -56.25411932920226 -156.19316188607922 -20.231745022266345 180.0 -109.01121660921801 31.363859983553407 180.0 109.77949233760458 -61.82016221631914 -169.5921053179634 -162.07601006667394 -45.55349312136588 180.0 -93.68724149106902 -7.232220513276625 180.0
-0.14759956087972925 -0.16960610909659718 0.07499507761572263 -3.315161692995307 9.164409610739977 13.139629162021455 -2.297323887998129 0.7058700630159602 -13.283468490540752 -2.072243824233532 1.2191511504871582 -13.30395840607059 -35.39251390982899 -4.070872267682112 -117.95326082532392 -83.32335327977874 86.55024678837995 81.47960138987519 -162.67009700023752 -38.69600004382959 180.0 -35.22252127742357 -52.65616121235738 -45.74576291319721 29.111021680744514 22.85106272016967 -150.47453814859412 -154.76368888253225 83.96460188942415 -179.99999999999858 67.86025299765375 28.912231041243473 164.9026802936945 -138.58108619156408 -76.05214669076008 -48.682873103564575 -156.27202308763 -18.323375489578194 180.0 -109.27803121060553 31.698364627652246 180.0 106.80789604713028 -61.7954323169252 -172.72736615210172 -162.30564479714818 -45.20060848341968 180.0 -95.2330354432481 -6.462999833611786 180.0
-0.1485093412976481 -0.17001009577085957 0.07650368422763086 -3.348591638085523 9.448176633379259 12.908154484289819 -2.0283886191599168 0.6397921078003747 -13.169766879276464 -1.8282400031297683 1.0882289555991036 -13.186432833420929 -35.91858655406989 -4.354985706923035 -118.16130081119353 66.2452860331683 78.46248137779283 -67.35724954791112 -160.8739470641517 -43.900542954648905 180.0 -32.791436925558536 -54.54773605123545 -40.111263744761565 29.646259423625867 21.75732654099012 -150.4991065450904 -154.16828062259458 68.45558372983339 -179.9999999999999 74.76597589211363 25.17491208882271 -177.27989154927158 -136.09146637791162 -74.86851018454314 -46.00991160801546 -156.8944189300598 -16.53583717791106 180.0 -109.9908985101784 32.16397312599846 180.0 106.25494672680489 -60.57732364349035 -173.29343412045682 -162.691653788278 -45.94166512245417 180.0 -97.14784483456135 -6.414812882599321 180.0
